name C:\Users\Nicos\Desktop\Gil_twoSteps\Study2\ExperimentalData\IK_Splined\twoSteps_IK_BSplines_80_meshInts_study2_p02_s_01_lowIK_modROI.mot
datacolumns 38
datarows 6
range 0.65500000 0.66129503
endheader
                time	         pelvis_tilt	         pelvis_list	     pelvis_rotation	           pelvis_tx	           pelvis_ty	           pelvis_tz	       hip_flexion_r	     hip_adduction_r	      hip_rotation_r	        knee_angle_r	       ankle_angle_r	    subtalar_angle_r	         mtp_angle_r	       hip_flexion_l	     hip_adduction_l	      hip_rotation_l	        knee_angle_l	       ankle_angle_l	    subtalar_angle_l	         mtp_angle_l	    lumbar_extension	      lumbar_bending	     lumbar_rotation	          arm_flex_r	           arm_add_r	           arm_rot_r	        elbow_flex_r	           pro_sup_r	        wrist_flex_r	         wrist_dev_r	          arm_flex_l	           arm_add_l	           arm_rot_l	        elbow_flex_l	           pro_sup_l	        wrist_flex_l	         wrist_dev_l	
          0.65500000	        -17.55364902	          3.75396819	          9.31482902	          0.30816164	          0.89318143	          0.34005358	         30.46606662	         -9.41143779	        -15.87112633	       -111.21454815	        -14.94758203	        -31.61153599	         -8.98112868	         30.89949304	          6.10698408	         -0.15952521	        -50.39575128	         21.97936051	         -8.97549346	          6.07379493	        -27.94050894	         -9.08022422	         -2.17653792	        -29.65073126	        -10.40263146	        -15.94380720	         49.27640305	         77.15867343	        -27.10588253	         30.37786796	         -2.33966238	        -11.79182764	         -7.94304565	         69.06634355	         69.45599426	          4.67112166	         19.78380544	
          0.65584503	        -17.58943928	          3.67847897	          9.54301527	          0.31253088	          0.89294708	          0.33976865	         31.03595853	         -9.47956678	        -15.97236482	       -111.65917618	        -14.61307930	        -31.58154522	         -8.92406536	         30.58649662	          6.09693630	          0.00636817	        -50.27643678	         22.04099157	         -8.97196975	          6.20116242	        -27.88791751	         -8.84413353	         -2.20621460	        -30.13347133	        -10.29454717	        -16.08525048	         48.68953225	         77.23427317	        -27.07286262	         30.53436179	         -1.70475437	        -11.64487895	         -7.71301535	         69.47337701	         69.36312575	          4.67765358	         19.74158400	
          0.65851497	        -17.68276530	          3.41998236	         10.32397378	          0.32625580	          0.89224033	          0.33886332	         32.84202598	         -9.74144237	        -16.31198521	       -112.94856798	        -13.58533590	        -31.48477564	         -8.72584717	         29.61217244	          6.01256740	          0.57327468	        -49.91575898	         22.12338887	         -8.88200220	          6.65386642	        -27.72992203	         -8.03332729	         -2.37507159	        -31.78410387	         -9.84151808	        -16.83541834	         47.41772312	         77.24143529	        -26.94920872	         30.93995594	          0.24174402	        -11.15337633	         -6.98537873	         70.94836901	         68.92789974	          4.68715880	         19.64703196	
          0.66045000	        -17.75040286	          3.23263828	         10.88996945	          0.33620286	          0.89172811	          0.33820719	         34.15096410	         -9.93123536	        -16.55812335	       -113.88304807	        -12.84048414	        -31.41464239	         -8.58218954	         28.90603599	          5.95142147	          0.98413726	        -49.65435960	         22.18310588	         -8.81679868	          6.98196133	        -27.61541561	         -7.44569963	         -2.49744982	        -32.98039133	         -9.51318758	        -17.37909866	         46.49598598	         77.24662599	        -26.85959119	         31.23390822	          1.65245875	        -10.79716232	         -6.45802781	         72.01736190	         68.61247192	          4.69404765	         19.57850585	
          0.66045000	        -17.75040286	          3.23263828	         10.88996945	          0.33620286	          0.89172811	          0.33820719	         34.15096410	         -9.93123536	        -16.55812335	       -113.88304807	        -12.84048414	        -31.41464239	         -8.58218954	         28.90603599	          5.95142147	          0.98413726	        -49.65435960	         22.18310588	         -8.81679868	          6.98196133	        -27.61541561	         -7.44569963	         -2.49744982	        -32.98039133	         -9.51318758	        -17.37909866	         46.49598598	         77.24662599	        -26.85959119	         31.23390822	          1.65245875	        -10.79716232	         -6.45802781	         72.01736190	         68.61247192	          4.69404765	         19.57850585	
          0.66129503	        -17.77698032	          3.14622145	         11.14442158	          0.34053428	          0.89150904	          0.33791894	         34.72351467	        -10.02000119	        -16.66632562	       -114.27236330	        -12.51815819	        -31.38243469	         -8.51648045	         28.59778090	          5.91544435	          1.17325352	        -49.53707343	         22.19664678	         -8.78143625	          7.13086308	        -27.56405838	         -7.17903400	         -2.56380626	        -33.51811202	         -9.35787113	        -17.65085163	         46.17229168	         77.24479584	        -26.81540096	         31.35479719	          2.25888672	        -10.64002993	         -6.22821200	         72.51154487	         68.45303418	          4.69433754	         19.55288425	
